<svg xmlns="http://www.w3.org/2000/svg" xmlns:xlink="http://www.w3.org/1999/xlink" width="500" zoomAndPan="magnify" viewBox="0 0 375 374.999991" height="500" preserveAspectRatio="xMidYMid meet" version="1.0"><defs><g/><clipPath id="99d7fbb4ea"><path d="M 85.835938 137.398438 L 174 137.398438 L 174 237.613281 L 85.835938 237.613281 Z M 85.835938 137.398438 " clip-rule="nonzero"/></clipPath><clipPath id="4bfd8063c4"><path d="M 150.71875 219.023438 C 144.574219 219.035156 138.699219 216.941406 133.007812 214.878906 C 133.988281 218.964844 135.359375 222.996094 137.121094 226.871094 C 137.824219 228.417969 141.832031 237.601562 143.910156 237.601562 C 139.191406 237.601562 134.566406 237.601562 129.929688 237.601562 C 125.296875 237.601562 120.671875 237.601562 115.953125 237.601562 C 118.03125 237.601562 122.039062 228.417969 122.742188 226.871094 C 124.503906 222.996094 125.875 218.964844 126.855469 214.878906 C 121.164062 216.941406 115.289062 219.035156 109.144531 219.023438 C 95.101562 219 84.332031 207.414062 86.074219 195.265625 C 88.042969 183.402344 97.867188 174.109375 106.351562 165.429688 C 114.773438 156.8125 122.785156 147.847656 129.4375 138.066406 C 129.589844 137.839844 129.753906 137.621094 129.929688 137.398438 C 130.109375 137.621094 130.273438 137.839844 130.425781 138.066406 C 137.078125 147.847656 145.089844 156.8125 153.511719 165.429688 C 161.996094 174.109375 171.820312 183.402344 173.789062 195.265625 C 175.53125 207.414062 164.757812 219 150.71875 219.023438 Z M 150.71875 219.023438 " clip-rule="nonzero"/></clipPath></defs><g clip-path="url(#99d7fbb4ea)"><g clip-path="url(#4bfd8063c4)"><path fill="#222222" d="M 85.835938 137.398438 L 174.023438 137.398438 L 174.023438 237.613281 L 85.835938 237.613281 Z M 85.835938 137.398438 " fill-opacity="1" fill-rule="nonzero"/></g></g><g fill="#222222" fill-opacity="1"><g transform="translate(189.028821, 181.650002)"><g><path d="M 27.671875 0 L 22.71875 -10.625 L 8.546875 -10.625 L 3.59375 0 L 0.21875 0 L 15.296875 -32.3125 L 16.0625 -32.3125 L 31.046875 0 Z M 9.984375 -13.6875 L 21.28125 -13.6875 L 15.65625 -25.78125 Z M 9.984375 -13.6875 "/></g></g></g><g fill="#222222" fill-opacity="1"><g transform="translate(220.295714, 181.650002)"><g><path d="M 14.9375 0.625 C 12.507812 0.625 10.332031 0.0703125 8.40625 -1.03125 C 6.488281 -2.144531 4.988281 -3.660156 3.90625 -5.578125 C 2.832031 -7.492188 2.296875 -9.625 2.296875 -11.96875 C 2.296875 -14.34375 2.84375 -16.476562 3.9375 -18.375 C 5.03125 -20.28125 6.550781 -21.78125 8.5 -22.875 C 10.457031 -23.976562 12.632812 -24.53125 15.03125 -24.53125 C 17.3125 -24.53125 19.390625 -24.070312 21.265625 -23.15625 C 23.140625 -22.238281 24.644531 -20.96875 25.78125 -19.34375 L 23.53125 -17.421875 C 22.394531 -18.796875 21.128906 -19.828125 19.734375 -20.515625 C 18.335938 -21.210938 16.722656 -21.5625 14.890625 -21.5625 C 13.085938 -21.5625 11.472656 -21.140625 10.046875 -20.296875 C 8.628906 -19.453125 7.503906 -18.300781 6.671875 -16.84375 C 5.847656 -15.394531 5.4375 -13.769531 5.4375 -11.96875 C 5.4375 -10.113281 5.84375 -8.445312 6.65625 -6.96875 C 7.46875 -5.5 8.597656 -4.359375 10.046875 -3.546875 C 11.503906 -2.742188 13.132812 -2.34375 14.9375 -2.34375 C 18.414062 -2.34375 21.28125 -3.691406 23.53125 -6.390625 L 25.828125 -4.59375 C 24.535156 -2.9375 22.96875 -1.648438 21.125 -0.734375 C 19.28125 0.171875 17.21875 0.625 14.9375 0.625 Z M 14.9375 0.625 "/></g></g></g><g fill="#222222" fill-opacity="1"><g transform="translate(248.098504, 181.650002)"><g><path d="M 14.765625 0.578125 C 12.179688 0.578125 9.953125 0.015625 8.078125 -1.109375 C 6.203125 -2.234375 4.769531 -3.742188 3.78125 -5.640625 C 2.789062 -7.546875 2.296875 -9.625 2.296875 -11.875 C 2.296875 -14.070312 2.804688 -16.132812 3.828125 -18.0625 C 4.847656 -20 6.296875 -21.5625 8.171875 -22.75 C 10.046875 -23.9375 12.179688 -24.53125 14.578125 -24.53125 C 16.890625 -24.53125 18.988281 -23.988281 20.875 -22.90625 C 22.769531 -21.820312 24.253906 -20.320312 25.328125 -18.40625 C 26.410156 -16.488281 26.953125 -14.328125 26.953125 -11.921875 L 26.953125 -11.703125 L 5.4375 -11.703125 C 5.5 -9.867188 5.925781 -8.242188 6.71875 -6.828125 C 7.519531 -5.421875 8.609375 -4.328125 9.984375 -3.546875 C 11.367188 -2.773438 12.960938 -2.390625 14.765625 -2.390625 C 16.890625 -2.390625 18.625 -2.882812 19.96875 -3.875 C 21.320312 -4.863281 22.523438 -6.210938 23.578125 -7.921875 L 26.140625 -6.5625 C 24.972656 -4.3125 23.421875 -2.554688 21.484375 -1.296875 C 19.546875 -0.046875 17.304688 0.578125 14.765625 0.578125 Z M 23.578125 -14.40625 C 22.984375 -16.769531 21.878906 -18.550781 20.265625 -19.75 C 18.660156 -20.957031 16.78125 -21.5625 14.625 -21.5625 C 12.4375 -21.5625 10.582031 -20.96875 9.0625 -19.78125 C 7.550781 -18.59375 6.453125 -16.800781 5.765625 -14.40625 Z M 23.578125 -14.40625 "/></g></g></g><g fill="#222222" fill-opacity="1"><g transform="translate(277.340915, 181.650002)"><g/></g></g><g fill="#222222" fill-opacity="1"><g transform="translate(289.802683, 181.650002)"><g><path d="M 23.71875 -32.3125 L 6.4375 0.8125 L 3.78125 -0.546875 L 18.71875 -29.15625 L 3.234375 -29.15625 L 3.234375 -32.3125 Z M 23.71875 -32.3125 "/></g></g></g><g fill="#222222" fill-opacity="1"><g transform="translate(198.76171, 221.499977)"><g><path d="M 8.46875 0.625 C 6.789062 0.625 5.34375 0.179688 4.125 -0.703125 C 2.914062 -1.585938 1.832031 -2.914062 0.875 -4.6875 L 3.015625 -5.984375 C 3.753906 -4.609375 4.566406 -3.566406 5.453125 -2.859375 C 6.347656 -2.160156 7.285156 -1.8125 8.265625 -1.8125 C 9.128906 -1.8125 9.914062 -2.003906 10.625 -2.390625 C 11.332031 -2.773438 11.890625 -3.296875 12.296875 -3.953125 C 12.710938 -4.609375 12.921875 -5.320312 12.921875 -6.09375 C 12.921875 -6.863281 12.703125 -7.578125 12.265625 -8.234375 C 11.835938 -8.898438 11.210938 -9.585938 10.390625 -10.296875 C 9.578125 -11.015625 8.15625 -12.191406 6.125 -13.828125 C 5.21875 -14.546875 4.507812 -15.1875 4 -15.75 C 3.5 -16.3125 3.117188 -16.910156 2.859375 -17.546875 C 2.609375 -18.191406 2.484375 -18.96875 2.484375 -19.875 C 2.484375 -21 2.75 -22.007812 3.28125 -22.90625 C 3.820312 -23.800781 4.554688 -24.5 5.484375 -25 C 6.421875 -25.507812 7.453125 -25.765625 8.578125 -25.765625 C 9.972656 -25.765625 11.175781 -25.40625 12.1875 -24.6875 C 13.207031 -23.976562 14.195312 -22.972656 15.15625 -21.671875 L 13.125 -20.09375 C 12.582031 -20.789062 12.101562 -21.347656 11.6875 -21.765625 C 11.269531 -22.191406 10.796875 -22.53125 10.265625 -22.78125 C 9.742188 -23.039062 9.15625 -23.171875 8.5 -23.171875 C 7.800781 -23.171875 7.195312 -23.023438 6.6875 -22.734375 C 6.175781 -22.441406 5.785156 -22.050781 5.515625 -21.5625 C 5.242188 -21.070312 5.109375 -20.546875 5.109375 -19.984375 C 5.109375 -19.191406 5.34375 -18.453125 5.8125 -17.765625 C 6.28125 -17.078125 6.957031 -16.40625 7.84375 -15.75 C 9.707031 -14.394531 11.144531 -13.273438 12.15625 -12.390625 C 13.175781 -11.503906 13.992188 -10.546875 14.609375 -9.515625 C 15.234375 -8.492188 15.546875 -7.363281 15.546875 -6.125 C 15.546875 -4.957031 15.234375 -3.851562 14.609375 -2.8125 C 13.992188 -1.78125 13.148438 -0.945312 12.078125 -0.3125 C 11.003906 0.3125 9.800781 0.625 8.46875 0.625 Z M 8.46875 0.625 "/></g></g></g><g fill="#222222" fill-opacity="1"><g transform="translate(215.802866, 221.499977)"><g><path d="M 4.796875 -16.484375 L 1.5 -16.484375 L 1.5 -18.578125 L 4.796875 -18.578125 L 4.796875 -25.515625 L 7.171875 -25.515625 L 7.171875 -18.578125 L 10.984375 -18.578125 L 10.984375 -16.484375 L 7.171875 -16.484375 L 7.171875 0 L 4.796875 0 Z M 4.796875 -16.484375 "/></g></g></g><g fill="#222222" fill-opacity="1"><g transform="translate(227.665181, 221.499977)"><g><path d="M 10.53125 0.453125 C 7.851562 0.453125 5.816406 -0.335938 4.421875 -1.921875 C 3.035156 -3.515625 2.34375 -5.859375 2.34375 -8.953125 L 2.34375 -18.578125 L 4.859375 -18.578125 L 4.859375 -7.984375 C 4.859375 -5.953125 5.359375 -4.421875 6.359375 -3.390625 C 7.367188 -2.367188 8.757812 -1.859375 10.53125 -1.859375 C 11.769531 -1.859375 12.804688 -2.109375 13.640625 -2.609375 C 14.484375 -3.109375 15.113281 -3.804688 15.53125 -4.703125 C 15.957031 -5.609375 16.171875 -6.644531 16.171875 -7.8125 L 16.171875 -18.578125 L 18.6875 -18.578125 L 18.6875 -8.953125 C 18.6875 -5.828125 18 -3.476562 16.625 -1.90625 C 15.25 -0.332031 13.21875 0.453125 10.53125 0.453125 Z M 10.53125 0.453125 "/></g></g></g><g fill="#222222" fill-opacity="1"><g transform="translate(248.940376, 221.499977)"><g><path d="M 11.3125 0.453125 C 9.53125 0.453125 7.914062 0.0078125 6.46875 -0.875 C 5.03125 -1.757812 3.890625 -2.953125 3.046875 -4.453125 C 2.203125 -5.960938 1.78125 -7.59375 1.78125 -9.34375 C 1.78125 -11.09375 2.207031 -12.707031 3.0625 -14.1875 C 3.914062 -15.675781 5.078125 -16.863281 6.546875 -17.75 C 8.015625 -18.632812 9.625 -19.078125 11.375 -19.078125 C 12.894531 -19.078125 14.285156 -18.75 15.546875 -18.09375 C 16.804688 -17.4375 17.890625 -16.46875 18.796875 -15.1875 L 18.796875 -25.765625 L 21.171875 -25.765625 L 21.171875 0 L 18.796875 0 L 18.796875 -3.1875 C 17.796875 -1.96875 16.664062 -1.054688 15.40625 -0.453125 C 14.144531 0.148438 12.78125 0.453125 11.3125 0.453125 Z M 11.546875 -1.71875 C 12.828125 -1.71875 14.035156 -2.023438 15.171875 -2.640625 C 16.304688 -3.253906 17.21875 -4.128906 17.90625 -5.265625 C 18.59375 -6.398438 18.9375 -7.710938 18.9375 -9.203125 C 18.9375 -10.628906 18.613281 -11.910156 17.96875 -13.046875 C 17.332031 -14.191406 16.453125 -15.097656 15.328125 -15.765625 C 14.210938 -16.429688 12.960938 -16.765625 11.578125 -16.765625 C 10.203125 -16.765625 8.945312 -16.421875 7.8125 -15.734375 C 6.6875 -15.046875 5.804688 -14.128906 5.171875 -12.984375 C 4.546875 -11.835938 4.234375 -10.601562 4.234375 -9.28125 C 4.234375 -7.945312 4.550781 -6.703125 5.1875 -5.546875 C 5.832031 -4.390625 6.710938 -3.460938 7.828125 -2.765625 C 8.953125 -2.066406 10.191406 -1.71875 11.546875 -1.71875 Z M 11.546875 -1.71875 "/></g></g></g><g fill="#222222" fill-opacity="1"><g transform="translate(272.909967, 221.499977)"><g><path d="M 3.84375 -22.296875 C 3.3125 -22.296875 2.851562 -22.492188 2.46875 -22.890625 C 2.082031 -23.285156 1.890625 -23.753906 1.890625 -24.296875 C 1.890625 -24.847656 2.082031 -25.3125 2.46875 -25.6875 C 2.851562 -26.0625 3.3125 -26.25 3.84375 -26.25 C 4.382812 -26.25 4.851562 -26.054688 5.25 -25.671875 C 5.644531 -25.285156 5.84375 -24.828125 5.84375 -24.296875 C 5.84375 -23.753906 5.644531 -23.285156 5.25 -22.890625 C 4.851562 -22.492188 4.382812 -22.296875 3.84375 -22.296875 Z M 2.6875 -18.578125 L 5.078125 -18.578125 L 5.078125 0 L 2.6875 0 Z M 2.6875 -18.578125 "/></g></g></g><g fill="#222222" fill-opacity="1"><g transform="translate(280.64322, 221.499977)"><g><path d="M 11.484375 0.484375 C 9.660156 0.484375 8.007812 0.046875 6.53125 -0.828125 C 5.050781 -1.703125 3.890625 -2.882812 3.046875 -4.375 C 2.203125 -5.863281 1.78125 -7.484375 1.78125 -9.234375 C 1.78125 -10.984375 2.203125 -12.617188 3.046875 -14.140625 C 3.890625 -15.660156 5.050781 -16.863281 6.53125 -17.75 C 8.007812 -18.632812 9.660156 -19.078125 11.484375 -19.078125 C 13.296875 -19.078125 14.941406 -18.632812 16.421875 -17.75 C 17.910156 -16.863281 19.070312 -15.660156 19.90625 -14.140625 C 20.75 -12.617188 21.171875 -10.984375 21.171875 -9.234375 C 21.171875 -7.484375 20.75 -5.863281 19.90625 -4.375 C 19.070312 -2.882812 17.910156 -1.703125 16.421875 -0.828125 C 14.941406 0.046875 13.296875 0.484375 11.484375 0.484375 Z M 11.484375 -1.8125 C 12.835938 -1.8125 14.066406 -2.144531 15.171875 -2.8125 C 16.273438 -3.476562 17.140625 -4.375 17.765625 -5.5 C 18.398438 -6.632812 18.71875 -7.867188 18.71875 -9.203125 C 18.71875 -10.554688 18.390625 -11.8125 17.734375 -12.96875 C 17.085938 -14.125 16.207031 -15.046875 15.09375 -15.734375 C 13.988281 -16.421875 12.785156 -16.765625 11.484375 -16.765625 C 10.171875 -16.765625 8.957031 -16.421875 7.84375 -15.734375 C 6.738281 -15.046875 5.859375 -14.125 5.203125 -12.96875 C 4.554688 -11.8125 4.234375 -10.554688 4.234375 -9.203125 C 4.234375 -7.847656 4.546875 -6.609375 5.171875 -5.484375 C 5.804688 -4.367188 6.671875 -3.476562 7.765625 -2.8125 C 8.867188 -2.144531 10.109375 -1.8125 11.484375 -1.8125 Z M 11.484375 -1.8125 "/></g></g></g><g fill="#93202f" fill-opacity="1"><g transform="translate(113.59499, 208.498916)"><g><path d="M 9.484375 0 L 4.796875 0 L 20.875 -36.421875 L 1.796875 -36.421875 L 1.796875 -40.625 L 27.421875 -40.625 Z M 9.484375 0 "/></g></g></g><g fill="#ffffff" fill-opacity="1"><g transform="translate(117.241761, 208.498916)"><g><path d="M 9.484375 0 L 4.796875 0 L 20.875 -36.421875 L 1.796875 -36.421875 L 1.796875 -40.625 L 27.421875 -40.625 Z M 9.484375 0 "/></g></g></g></svg>