<svg xmlns="http://www.w3.org/2000/svg" xmlns:xlink="http://www.w3.org/1999/xlink" width="500" zoomAndPan="magnify" viewBox="0 0 375 374.999991" height="500" preserveAspectRatio="xMidYMid meet" version="1.0"><defs><g/><clipPath id="5a9476eecf"><path d="M 78.125 63.222656 L 296.875 63.222656 L 296.875 311.804688 L 78.125 311.804688 Z M 78.125 63.222656 " clip-rule="nonzero"/></clipPath><clipPath id="0aa991f692"><path d="M 239.070312 265.691406 C 223.824219 265.722656 209.253906 260.527344 195.132812 255.410156 C 197.570312 265.546875 200.964844 275.539062 205.339844 285.152344 C 207.085938 288.996094 217.023438 311.765625 222.175781 311.765625 C 210.476562 311.765625 199 311.765625 187.503906 311.765625 C 176.011719 311.765625 164.535156 311.765625 152.832031 311.765625 C 157.988281 311.765625 167.921875 288.996094 169.671875 285.152344 C 174.046875 275.539062 177.441406 265.546875 179.875 255.410156 C 165.761719 260.527344 151.1875 265.722656 135.941406 265.691406 C 101.113281 265.625 74.390625 236.894531 78.71875 206.757812 C 83.601562 177.328125 107.96875 154.285156 129.011719 132.75 C 149.90625 111.371094 169.777344 89.136719 186.277344 64.875 C 186.660156 64.316406 187.070312 63.777344 187.503906 63.222656 C 187.941406 63.777344 188.351562 64.316406 188.730469 64.875 C 205.234375 89.140625 225.105469 111.375 246 132.75 C 267.042969 154.285156 291.410156 177.328125 296.292969 206.757812 C 300.613281 236.894531 273.894531 265.625 239.070312 265.691406 Z M 239.070312 265.691406 " clip-rule="nonzero"/></clipPath></defs><g clip-path="url(#5a9476eecf)"><g clip-path="url(#0aa991f692)"><path fill="#222222" d="M 78.125 63.222656 L 296.875 63.222656 L 296.875 311.804688 L 78.125 311.804688 Z M 78.125 63.222656 " fill-opacity="1" fill-rule="nonzero"/></g></g><g fill="#93202f" fill-opacity="1"><g transform="translate(148.970049, 239.251038)"><g><path d="M 23.546875 0 L 11.921875 0 L 51.859375 -90.4375 L 4.46875 -90.4375 L 4.46875 -100.875 L 68.09375 -100.875 Z M 23.546875 0 "/></g></g></g><g fill="#ffffff" fill-opacity="1"><g transform="translate(155.704242, 239.251038)"><g><path d="M 23.546875 0 L 11.921875 0 L 51.859375 -90.4375 L 4.46875 -90.4375 L 4.46875 -100.875 L 68.09375 -100.875 Z M 23.546875 0 "/></g></g></g></svg>